<svg xmlns="http://www.w3.org/2000/svg" viewBox="0 0 24 24" width="24" height="24"><path d="M5.378 6.17c0 .49.19 1.175.285 1.565.095.44.572 1.612 1.38 1.66 1 0 1.382-.83 1.715-1.22 1-1.125 1.523.73 1.523 1.66 0 .683-.14 2.638 1 2.638.717 0 1.097-1.808 1.335-2.54.19-.636.047-1.222.62-1.515.57-.294.905-.1 1.237.488.48.732 1.335 2.247 2.144.928.333-.538.096-1.32.62-1.662.76-.488.95.245 1.094.44.286.44.952.49 1.19-.048 0-.684 0-1.71-.047-2.298-1.047 0-12.95-.05-14.093-.098zm-.24 3.91v4.934c4.857-.147 12.002 0 13.955-.048v-4.543c-1 .243-1.715-.05-2 .34-.24.392-.81 1.466-1.334 1.466-1.098-.05-1.717-1.42-2.05-1.42-.57 0-1.38 3.273-2.666 3.273-1.476 0-2.05-3.564-2.668-3.76-.476-.195-1.143.634-1.666.634-.618 0-.762-.878-1.57-.878zM3.9 15.894l.667.538.382 1.417 14.57-.05.286-1.125.523-.782H3.9z" stroke-miterlimit="10" fill="none" stroke="#fff" stroke-width=".483"/></svg>
