<svg xmlns="http://www.w3.org/2000/svg" viewBox="0 0 24 24" width="24" height="24"><path d="M12.028 1.89l-.082.12h-.157v4.295H8.03V7.97h7.883V6.305H12.19V2.482l2.06 1.397.224-.332-2.446-1.658zm-3.6 4.814h7.085v.867H8.43v-.866zm-.237 1.39l.022.22.893 9.34h5.874l.99-9.56H8.19zm.44.398h6.898l-.907 8.762H9.47l-.838-8.76zm1.188.823v2.668h2.152V9.316H9.818zm.4.4h1.353v1.87h-1.353v-1.87zm1.972 1.912v2.668h2.152v-2.667H12.19zm.4.4h1.353v1.87H12.59v-1.87zM9.817 14.07v2.67h2.152v-2.67H9.818zm.4.4h1.353v1.87h-1.353v-1.87zm-1.522 3.266l.027.223.35 2.88h5.86l.503-3.104h-6.74zm.45.398h5.822l-.373 2.307H9.427l-.28-2.306z" stroke-miterlimit="10" fill="#fff" stroke-width=".58"/></svg>
