<svg xmlns="http://www.w3.org/2000/svg" viewBox="0 -9.3 36.7 34.2"><g fill="none" stroke="#fff" stroke-miterlimit="10"><path d="M34.1 24.2l-30.6.1-.8-2.9-1.4-1.1h34.5l-1.1 1.6z"/><path d="M4.4.4c0 1 .4 2.4.6 3.2.2.9 1.2 3.3 2.9 3.4 2.1 0 2.9-1.7 3.6-2.5 2.1-2.3 3.2 1.5 3.2 3.4 0 1.4-.3 5.4 2.1 5.4 1.5 0 2.3-3.7 2.8-5.2.4-1.3.1-2.5 1.3-3.1 1.2-.6 1.9-.2 2.6 1 1 1.5 2.8 4.6 4.5 1.9.7-1.1.2-2.7 1.3-3.4 1.6-1 2 .5 2.3.9.6.9 2 1 2.5-.1 0-1.4 0-3.5-.1-4.7C31.8.6 6.8.5 4.4.4"/><path d="M3.9 8.4c1.7 0 2 1.8 3.3 1.8 1.1 0 2.5-1.7 3.5-1.3 1.3.4 2.5 7.7 5.6 7.7 2.7 0 4.4-6.7 5.6-6.7.7 0 2 2.8 4.3 2.9 1.1 0 2.3-2.2 2.8-3 .6-.8 2.1-.2 4.2-.7v9.3c-4.1.1-19.1-.2-29.3.1V8.4z"/></g></svg>
